<?xml version="1.0" encoding="utf-8"?>
<!-- Generator: Adobe Illustrator 25.4.1, SVG Export Plug-In . SVG Version: 6.00 Build 0)  -->
<svg version="1.1" id="Layer_1" xmlns="http://www.w3.org/2000/svg" xmlns:xlink="http://www.w3.org/1999/xlink" x="0px" y="0px"
	 viewBox="0 0 70 70" style="enable-background:new 0 0 70 70;" xml:space="preserve">
<style type="text/css">
	.st0{fill:#FF6770;}
	.st1{fill:#FFFFFF;}
</style>
<g>
	<path class="st0" d="M15,0h40c8.3,0,15,6.7,15,15v40c0,8.3-6.7,15-15,15H15C6.7,70,0,63.3,0,55V15C0,6.7,6.7,0,15,0z"/>
	<path class="st1" d="M35,15L35,15c1.1,0,2,0.9,2,2v36c0,1.1-0.9,2-2,2l0,0c-1.1,0-2-0.9-2-2V17C33,15.9,33.9,15,35,15z"/>
	<path class="st1" d="M15,35L15,35c0-1.1,0.9-2,2-2h36c1.1,0,2,0.9,2,2l0,0c0,1.1-0.9,2-2,2H17C15.9,37,15,36.1,15,35z"/>
</g>
</svg>
