<svg width="15" height="16" viewBox="0 0 15 16" fill="none" xmlns="http://www.w3.org/2000/svg">
<path d="M7.26562 0.734375C3.25292 0.734375 0 3.9873 0 8C0 12.0127 3.25292 15.2656 7.26562 15.2656C11.2783 15.2656 14.5312 12.0127 14.5312 8C14.5312 3.9873 11.2783 0.734375 7.26562 0.734375ZM10.6973 10.8932C10.6506 10.9479 9.53197 12.2329 7.47899 12.2329C4.99778 12.2329 3.24606 10.3796 3.24606 7.96827C3.24606 5.58635 5.06259 3.76707 7.45784 3.76707C9.41947 3.76707 10.4451 4.86028 10.4878 4.90684C10.5404 4.96417 10.5725 5.03732 10.579 5.11485C10.5856 5.19238 10.5663 5.26989 10.5241 5.33524L9.86839 6.35053C9.74977 6.53413 9.49415 6.56589 9.33419 6.41776C9.32736 6.41149 8.55697 5.71815 7.5213 5.71815C6.17024 5.71815 5.35579 6.7018 5.35579 7.94712C5.35579 9.10733 6.10327 10.2818 7.53188 10.2818C8.66558 10.2818 9.44438 9.45163 9.45211 9.44322C9.60246 9.28019 9.86399 9.29577 9.99434 9.47407L10.7135 10.4576C10.7602 10.5215 10.7839 10.5992 10.781 10.6782C10.7781 10.7572 10.7486 10.833 10.6973 10.8932Z" fill="black"/>
</svg>
