<svg width="56" height="55" viewBox="0 0 56 55" fill="none" xmlns="http://www.w3.org/2000/svg">
<path d="M49.601 0H6.38675C4.82387 0 3.325 0.620853 2.21987 1.72598C1.11475 2.8311 0.493896 4.32997 0.493896 5.89286L0.493896 49.1071C0.493896 50.67 1.11475 52.1689 2.21987 53.274C3.325 54.3791 4.82387 55 6.38675 55H23.2366V36.3012H15.5023V27.5H23.2366V20.792C23.2366 13.1619 27.7791 8.94732 34.7363 8.94732C38.0682 8.94732 41.5524 9.54152 41.5524 9.54152V17.0304H37.7134C33.931 17.0304 32.7512 19.3777 32.7512 21.7852V27.5H41.1951L39.8447 36.3012H32.7512V55H49.601C51.1639 55 52.6628 54.3791 53.7679 53.274C54.873 52.1689 55.4939 50.67 55.4939 49.1071V5.89286C55.4939 4.32997 54.873 2.8311 53.7679 1.72598C52.6628 0.620853 51.1639 0 49.601 0Z" fill="#504F4F"/>
</svg>
