<svg width="56" height="55" viewBox="0 0 56 55" fill="none" xmlns="http://www.w3.org/2000/svg">
<path d="M28.0062 13.3987C20.2007 13.3987 13.9049 19.6946 13.9049 27.5C13.9049 35.3054 20.2007 41.6013 28.0062 41.6013C35.8116 41.6013 42.1075 35.3054 42.1075 27.5C42.1075 19.6946 35.8116 13.3987 28.0062 13.3987ZM28.0062 36.6677C22.9621 36.6677 18.8385 32.5563 18.8385 27.5C18.8385 22.4437 22.9498 18.3323 28.0062 18.3323C33.0625 18.3323 37.1739 22.4437 37.1739 27.5C37.1739 32.5563 33.0502 36.6677 28.0062 36.6677ZM45.9734 12.8219C45.9734 14.6505 44.5007 16.111 42.6843 16.111C40.8557 16.111 39.3952 14.6382 39.3952 12.8219C39.3952 11.0055 40.8679 9.5328 42.6843 9.5328C44.5007 9.5328 45.9734 11.0055 45.9734 12.8219ZM55.3129 16.16C55.1042 11.7542 54.0979 7.85144 50.8702 4.636C47.6547 1.42056 43.752 0.414203 39.3461 0.193295C34.8052 -0.0644315 21.1948 -0.0644315 16.6539 0.193295C12.2603 0.40193 8.35761 1.40829 5.1299 4.62373C1.90219 7.83917 0.908099 11.7419 0.687191 16.1478C0.429465 20.6887 0.429465 34.2991 0.687191 38.84C0.895827 43.2458 1.90219 47.1486 5.1299 50.364C8.35761 53.5794 12.2481 54.5858 16.6539 54.8067C21.1948 55.0644 34.8052 55.0644 39.3461 54.8067C43.752 54.5981 47.6547 53.5917 50.8702 50.364C54.0856 47.1486 55.092 43.2458 55.3129 38.84C55.5706 34.2991 55.5706 20.7009 55.3129 16.16ZM49.4465 43.7122C48.4893 46.1176 46.6361 47.9708 44.2184 48.9404C40.5979 50.3763 32.0071 50.0449 28.0062 50.0449C24.0053 50.0449 15.4021 50.364 11.794 48.9404C9.38852 47.9831 7.53535 46.1299 6.5658 43.7122C5.1299 40.0918 5.46126 31.5009 5.46126 27.5C5.46126 23.4991 5.14217 14.896 6.5658 11.2878C7.52307 8.88235 9.37625 7.02918 11.794 6.05963C15.4144 4.62373 24.0053 4.95509 28.0062 4.95509C32.0071 4.95509 40.6102 4.636 44.2184 6.05963C46.6238 7.0169 48.477 8.87008 49.4465 11.2878C50.8824 14.9082 50.5511 23.4991 50.5511 27.5C50.5511 31.5009 50.8824 40.104 49.4465 43.7122Z" fill="#504F4F"/>
</svg>
