<svg width="56" height="55" viewBox="0 0 56 55" fill="none" xmlns="http://www.w3.org/2000/svg">
<path d="M49.6132 0H6.39896C3.14561 0 0.506104 2.63951 0.506104 5.89286V49.1071C0.506104 52.3605 3.14561 55 6.39896 55H49.6132C52.8666 55 55.5061 52.3605 55.5061 49.1071V5.89286C55.5061 2.63951 52.8666 0 49.6132 0ZM48.8153 38.6596C48.3856 39.654 46.5932 40.3783 43.3153 40.894C43.1434 41.1272 43.0083 42.0971 42.7874 42.846C42.6523 43.3002 42.3331 43.5703 41.7929 43.5703H41.7684C41.0072 43.5703 40.1969 43.2143 38.601 43.2143C36.4403 43.2143 35.6914 43.7054 34.0095 44.8962C32.2293 46.1607 30.5228 47.2411 27.9693 47.1306C25.3911 47.327 23.2304 45.7556 22.015 44.8962C20.3208 43.7054 19.5842 43.2143 17.4235 43.2143C15.8889 43.2143 14.9191 43.5949 14.2561 43.5949C13.5932 43.5949 13.3353 43.1897 13.2371 42.8583C13.0161 42.1094 12.8811 41.1272 12.7092 40.894C11.015 40.6362 7.20923 39.9732 7.12329 38.2667C7.09874 37.8248 7.40566 37.4319 7.84762 37.3583C13.5318 36.4252 16.0853 30.5938 16.1958 30.3482C16.1958 30.3359 16.2081 30.3237 16.2204 30.3114C16.5273 29.6975 16.5887 29.1819 16.4168 28.7768C15.9994 27.8069 14.2193 27.4632 13.4704 27.1562C11.5307 26.3951 11.2606 25.5112 11.3833 24.9096C11.5798 23.8661 13.1512 23.2154 14.072 23.6451C14.7963 23.9888 15.447 24.1607 15.9994 24.1607C16.4045 24.1607 16.6746 24.0625 16.8097 23.9888C16.6378 21.0547 16.2327 16.8683 17.2762 14.5234C20.0385 8.34822 25.8822 7.85714 27.601 7.85714C27.6746 7.85714 28.3499 7.84487 28.4235 7.84487C32.6836 7.84487 36.7717 10.0301 38.7728 14.5112C39.8164 16.856 39.4112 21.0301 39.2394 23.9766C39.3744 24.0502 39.5954 24.1362 39.9391 24.1484C40.467 24.1239 41.0686 23.952 41.7438 23.6328C42.2349 23.3996 42.9224 23.4364 43.4135 23.6328C44.1869 23.9152 44.678 24.4676 44.6903 25.0938C44.7025 25.8917 43.9905 26.5792 42.5787 27.1317C42.4068 27.2054 42.1981 27.2667 41.9771 27.3404C41.1791 27.5982 39.9637 27.9788 39.6445 28.7522C39.4726 29.1574 39.5463 29.673 39.8409 30.2868C39.8532 30.2991 39.8532 30.3114 39.8655 30.3237C39.976 30.5692 42.5295 36.4007 48.2137 37.3337C48.7048 37.4565 49.0853 38.0089 48.8153 38.6596Z" fill="#504F4F"/>
</svg>
