<svg width="56" height="55" viewBox="0 0 56 55" fill="none" xmlns="http://www.w3.org/2000/svg">
<path d="M53.3061 0H2.7061C1.48923 0 0.506104 0.983125 0.506104 2.2V52.8C0.506104 54.0169 1.48923 55 2.7061 55H53.3061C54.523 55 55.5061 54.0169 55.5061 52.8V2.2C55.5061 0.983125 54.523 0 53.3061 0ZM42.808 19.9169C42.8286 20.24 42.8286 20.5769 42.8286 20.9069C42.8286 30.9994 35.1424 42.625 21.0967 42.625C16.7655 42.625 12.7505 41.3669 9.36798 39.2013C9.98673 39.27 10.578 39.2975 11.2105 39.2975C14.7855 39.2975 18.0717 38.0875 20.6911 36.0387C17.3361 35.97 14.5174 33.77 13.5549 30.745C14.7305 30.9169 15.7892 30.9169 16.9992 30.6075C15.2717 30.2565 13.719 29.3183 12.6048 27.9523C11.4907 26.5862 10.8838 24.8765 10.8874 23.1138V23.0175C11.898 23.5881 13.0874 23.9387 14.3317 23.9869C13.2856 23.2897 12.4278 22.3452 11.8341 21.2371C11.2405 20.129 10.9295 18.8915 10.9286 17.6344C10.9286 16.2113 11.2999 14.9119 11.9667 13.7844C13.8842 16.1448 16.2769 18.0754 18.9893 19.4505C21.7017 20.8257 24.6732 21.6147 27.7105 21.7663C26.6311 16.5756 30.5086 12.375 35.1699 12.375C37.3699 12.375 39.3499 13.2963 40.7455 14.7812C42.4711 14.4581 44.1211 13.8119 45.5924 12.9456C45.0217 14.7125 43.8255 16.2044 42.2374 17.1462C43.7774 16.9813 45.2624 16.555 46.6374 15.9569C45.5992 17.4831 44.2999 18.8375 42.808 19.9169Z" fill="#504F4F"/>
</svg>
