<svg width="25" height="26" viewBox="0 0 25 26" fill="none" xmlns="http://www.w3.org/2000/svg">
<path d="M0.00178507 1.3926C0.00178507 1.15587 0.095827 0.928832 0.263222 0.761437C0.430618 0.594041 0.657654 0.5 0.894387 0.5H1.67631C2.97415 0.5 3.72037 1.3444 4.15238 2.18702C4.44694 2.76364 4.65938 3.46701 4.83612 4.07755H23.2148C23.4906 4.07763 23.7627 4.14163 24.0097 4.26454C24.2566 4.38744 24.4717 4.5659 24.6381 4.78591C24.8045 5.00592 24.9177 5.26149 24.9687 5.53258C25.0197 5.80366 25.0072 6.08288 24.9322 6.34833L22.2615 15.7653C22.0491 16.5124 21.5988 17.1699 20.9789 17.638C20.3591 18.1061 19.6035 18.3593 18.8268 18.3592H9.75971C8.9765 18.3594 8.21493 18.1022 7.59233 17.627C6.96973 17.1518 6.52064 16.4851 6.31427 15.7296L5.16817 11.5254C5.16159 11.5066 5.15564 11.4875 5.15031 11.4683L3.30977 5.22544L3.13125 4.62382C2.95273 4.00614 2.79563 3.45987 2.55998 3.00107C2.27613 2.44766 2.0155 2.28699 1.67452 2.28699H0.892602C0.655869 2.28699 0.428832 2.19295 0.261437 2.02555C0.0940415 1.85816 0 1.63112 0 1.39439L0.00178507 1.3926ZM6.87125 10.9863L8.03699 15.2636C8.14034 15.6412 8.36495 15.9744 8.67624 16.2118C8.98752 16.4492 9.36822 16.5777 9.75971 16.5775H18.8285C19.2167 16.5772 19.5942 16.4502 19.9038 16.2161C20.2134 15.9819 20.4382 15.6531 20.5441 15.2797L23.2148 5.86275H5.36275L6.87125 10.9845V10.9863Z" fill="black"/>
<path d="M12.5033 22.8223C12.5033 23.5325 12.2212 24.2136 11.719 24.7158C11.2168 25.218 10.5357 25.5001 9.82551 25.5001C9.11531 25.5001 8.4342 25.218 7.93202 24.7158C7.42983 24.2136 7.14771 23.5325 7.14771 22.8223C7.14771 22.1121 7.42983 21.431 7.93202 20.9288C8.4342 20.4267 9.11531 20.1445 9.82551 20.1445C10.5357 20.1445 11.2168 20.4267 11.719 20.9288C12.2212 21.431 12.5033 22.1121 12.5033 22.8223V22.8223ZM10.7181 22.8223C10.7181 22.5856 10.6241 22.3586 10.4567 22.1912C10.2893 22.0238 10.0622 21.9297 9.82551 21.9297C9.58878 21.9297 9.36174 22.0238 9.19435 22.1912C9.02695 22.3586 8.93291 22.5856 8.93291 22.8223C8.93291 23.0591 9.02695 23.2861 9.19435 23.4535C9.36174 23.6209 9.58878 23.7149 9.82551 23.7149C10.0622 23.7149 10.2893 23.6209 10.4567 23.4535C10.6241 23.2861 10.7181 23.0591 10.7181 22.8223Z" fill="black"/>
<path d="M21.4293 22.8223C21.4293 23.5325 21.1472 24.2136 20.645 24.7158C20.1428 25.218 19.4617 25.5001 18.7515 25.5001C18.0413 25.5001 17.3602 25.218 16.858 24.7158C16.3559 24.2136 16.0737 23.5325 16.0737 22.8223C16.0737 22.1121 16.3559 21.431 16.858 20.9288C17.3602 20.4267 18.0413 20.1445 18.7515 20.1445C19.4617 20.1445 20.1428 20.4267 20.645 20.9288C21.1472 21.431 21.4293 22.1121 21.4293 22.8223V22.8223ZM19.6441 22.8223C19.6441 22.5856 19.5501 22.3586 19.3827 22.1912C19.2153 22.0238 18.9883 21.9297 18.7515 21.9297C18.5148 21.9297 18.2878 22.0238 18.1204 22.1912C17.953 22.3586 17.8589 22.5856 17.8589 22.8223C17.8589 23.0591 17.953 23.2861 18.1204 23.4535C18.2878 23.6209 18.5148 23.7149 18.7515 23.7149C18.9883 23.7149 19.2153 23.6209 19.3827 23.4535C19.5501 23.2861 19.6441 23.0591 19.6441 22.8223Z" fill="black"/>
</svg>
