<svg width="22" height="25" viewBox="0 0 22 25" fill="none" xmlns="http://www.w3.org/2000/svg">
<path d="M11.0374 0.711426C12.0213 0.711361 12.9679 1.08779 13.683 1.76348C14.3982 2.43918 14.8277 3.36291 14.8834 4.3452L14.8893 4.56328H21.1115C21.3367 4.56335 21.5535 4.6489 21.7181 4.80265C21.8826 4.9564 21.9827 5.16689 21.998 5.39158C22.0134 5.61627 21.9429 5.83841 21.8008 6.01311C21.6586 6.18782 21.4555 6.30206 21.2324 6.33276L21.1115 6.34106H20.1681L18.6511 21.7722C18.575 22.5415 18.2281 23.2587 17.6721 23.7958C17.1161 24.3329 16.3873 24.6549 15.6158 24.7043L15.4072 24.7114H6.66765C5.89427 24.7114 5.1461 24.4364 4.55684 23.9355C3.96758 23.4346 3.57564 22.7405 3.45106 21.9772L3.4238 21.771L1.90557 6.34106H0.963352C0.748552 6.34105 0.54102 6.26326 0.379138 6.12207C0.217255 5.98089 0.111972 5.78586 0.0827592 5.57306L0.0744629 5.45217C0.0744719 5.23737 0.152262 5.02984 0.293446 4.86795C0.43463 4.70607 0.629659 4.60079 0.842463 4.57157L0.963352 4.56328H7.18557C7.18557 3.5417 7.59139 2.56197 8.31376 1.83961C9.03612 1.11724 10.0159 0.711426 11.0374 0.711426ZM18.382 6.34106H3.69165L5.19328 21.5968C5.22653 21.9372 5.37653 22.2556 5.61784 22.498C5.85914 22.7403 6.17688 22.8918 6.51713 22.9265L6.66765 22.9336H15.4072C16.1183 22.9336 16.7216 22.4299 16.8591 21.7461L16.8828 21.5968L18.3808 6.34106H18.382ZM13.1115 9.60032C13.3263 9.60032 13.5338 9.67811 13.6957 9.8193C13.8576 9.96048 13.9629 10.1555 13.9921 10.3683L14.0004 10.4892V18.7855C14.0003 19.0107 13.9148 19.2275 13.761 19.3921C13.6073 19.5566 13.3968 19.6567 13.1721 19.672C12.9474 19.6874 12.7253 19.6169 12.5506 19.4748C12.3758 19.3326 12.2616 19.1295 12.2309 18.9064L12.2226 18.7855V10.4892C12.2226 10.2535 12.3163 10.0274 12.483 9.86066C12.6497 9.69397 12.8758 9.60032 13.1115 9.60032ZM8.96335 9.60032C9.17815 9.60032 9.38568 9.67811 9.54757 9.8193C9.70945 9.96048 9.81473 10.1555 9.84394 10.3683L9.85224 10.4892V18.7855C9.85217 19.0107 9.76662 19.2275 9.61287 19.3921C9.45911 19.5566 9.24863 19.6567 9.02394 19.672C8.79925 19.6874 8.57711 19.6169 8.4024 19.4748C8.2277 19.3326 8.11346 19.1295 8.08276 18.9064L8.07446 18.7855V10.4892C8.07446 10.2535 8.16811 10.0274 8.33481 9.86066C8.50151 9.69397 8.7276 9.60032 8.96335 9.60032ZM11.0374 2.4892C10.5169 2.48922 10.0154 2.68496 9.63252 3.03756C9.24962 3.39017 9.01329 3.87385 8.97046 4.39261L8.96335 4.56328H13.1115C13.1115 4.0132 12.893 3.48565 12.504 3.09669C12.1151 2.70772 11.5875 2.4892 11.0374 2.4892Z" fill="black"/>
</svg>
