<svg width="29" height="26" viewBox="0 0 29 26" fill="none" xmlns="http://www.w3.org/2000/svg">
<path d="M21.4473 2.5C22.1754 2.49939 22.8963 2.64413 23.5677 2.92575C24.2391 3.20736 24.8475 3.62018 25.3573 4.14C26.4077 5.20638 26.9965 6.64316 26.9965 8.14C26.9965 9.63685 26.4077 11.0736 25.3573 12.14L14.9973 22.63L4.63733 12.14C3.58692 11.0736 2.99812 9.63685 2.99812 8.14C2.99812 6.64316 3.58692 5.20638 4.63733 4.14C5.14743 3.62055 5.75591 3.20795 6.42724 2.92629C7.09858 2.64464 7.81931 2.49957 8.54733 2.49957C9.27536 2.49957 9.99609 2.64464 10.6674 2.92629C11.3388 3.20795 11.9472 3.62055 12.4573 4.14L14.9973 6.74L17.5273 4.16C18.0356 3.63398 18.6447 3.21586 19.3182 2.93064C19.9918 2.64542 20.7159 2.49895 21.4473 2.5ZM21.4473 0.500003C20.453 0.49916 19.4684 0.696858 18.5514 1.0815C17.6345 1.46615 16.8035 2.03 16.1073 2.74L14.9973 3.86L13.8873 2.74C13.1903 2.03129 12.3591 1.46841 11.4423 1.08419C10.5255 0.699974 9.5414 0.502097 8.54733 0.502097C7.55327 0.502097 6.56915 0.699974 5.65235 1.08419C4.73554 1.46841 3.90438 2.03129 3.20733 2.74C1.78921 4.18363 0.994629 6.12636 0.994629 8.15C0.994629 10.1736 1.78921 12.1164 3.20733 13.56L14.9973 25.5L26.7873 13.56C28.2055 12.1164 29 10.1736 29 8.15C29 6.12636 28.2055 4.18363 26.7873 2.74C26.0905 2.03091 25.2594 1.46765 24.3426 1.08306C23.4257 0.698482 22.4415 0.500276 21.4473 0.500003Z" fill="black"/>
</svg>
